<svg width="16" height="16" viewBox="0 0 16 16" fill="none" xmlns="http://www.w3.org/2000/svg">
<path d="M8 8.48C9.1046 8.48 10 7.5846 10 6.47998C10 5.37541 9.1046 4.47998 8 4.47998C6.8954 4.47998 6 5.37541 6 6.47998C6 7.5846 6.8954 8.48 8 8.48Z" stroke="#96959B" stroke-miterlimit="10" stroke-linecap="round"/>
<path d="M8.00006 2.47998C4.00004 2.47998 3.33338 5.81331 4.00004 8.34C4.58671 10.5533 6.34671 12.0667 7.50673 13.3067C7.5692 13.3754 7.6454 13.4303 7.73033 13.4679C7.81526 13.5055 7.9072 13.5249 8.00006 13.5249C8.093 13.5249 8.18486 13.5055 8.2698 13.4679C8.35473 13.4303 8.43093 13.3754 8.49339 13.3067C9.6534 12.0667 11.4134 10.5533 12.0001 8.34C12.6667 5.81331 12.0001 2.47998 8.00006 2.47998Z" stroke="#96959B" stroke-miterlimit="10" stroke-linecap="round"/>
</svg>
